PathFileType	4	(X/Y/Z)	C:\Users\dbl\Desktop\LZH\BX\Trimmed_bx_y_10_1801.trc
DataRate	CameraRate	NumFrames	NumMarkers	Units	OrigDataRate	OrigDataStartFrame	OrigNumFrames
50.00	50.00	       6	43	mm	50.00	1	       357
Frame#	Time	Top.Head			R.Acromium			L.Acromium			Sternum			R.ASIS			L.ASIS			V.Sacral			R.Thigh.Upper			R.Thigh.Front			R.Thigh.Rear			R.Knee.Lat			R.Knee.Med			R.Shank.Upper			R.Shank.Front			R.Shank.Rear			R.Ankle.Lat			R.Midfoot.Lat			R.Toe.Lat			R.Toe.Tip			R.Toe.Med			R.Ankle.Med			R.Midfoot.Sup			R.Heel			L.Thigh.Upper			L.Thigh.Front			L.Thigh.Rear			L.Knee.Lat			L.Knee.Med			L.Shank.Upper			L.Shank.Front			L.Shank.Rear			L.Ankle.Lat			L.Midfoot.Lat			L.Toe.Lat			L.Toe.Tip			L.Toe.Med			L.Ankle.Med			L.Midfoot.Sup			L.Heel			origin1 front left			origin2 front right			origin 3 back right			origin 4 back leftt			
		X1	Y1	Z1	X2	Y2	Z2	X3	Y3	Z3	X4	Y4	Z4	X5	Y5	Z5	X6	Y6	Z6	X7	Y7	Z7	X8	Y8	Z8	X9	Y9	Z9	X10	Y10	Z10	X11	Y11	Z11	X12	Y12	Z12	X13	Y13	Z13	X14	Y14	Z14	X15	Y15	Z15	X16	Y16	Z16	X17	Y17	Z17	X18	Y18	Z18	X19	Y19	Z19	X20	Y20	Z20	X21	Y21	Z21	X22	Y22	Z22	X23	Y23	Z23	X24	Y24	Z24	X25	Y25	Z25	X26	Y26	Z26	X27	Y27	Z27	X28	Y28	Z28	X29	Y29	Z29	X30	Y30	Z30	X31	Y31	Z31	X32	Y32	Z32	X33	Y33	Z33	X34	Y34	Z34	X35	Y35	Z35	X36	Y36	Z36	X37	Y37	Z37	X38	Y38	Z38	X39	Y39	Z39	X40	Y40	Z40	X41	Y41	Z41	X42	Y42	Z42	X43	Y43	Z43	

1	0.000	-673.80933	207.09953	1836.29639	-623.05664	25.15346	1528.87439	-619.06451	417.94727	1529.37732	-524.09857	232.42696	1399.76807	-537.76495	108.44145	1062.89600	-543.69775	367.32648	1086.56812	-727.72662	213.06445	1055.80200	-560.21979	64.06548	895.91205	-516.03351	129.07481	850.41949	-610.21472	66.62255	752.31696	-631.10254	104.21563	606.96063	-619.45221	217.42116	572.68073	-670.16705	107.88492	542.20605	-585.86359	158.77911	555.04352	-712.98419	115.56577	477.47342	-687.16370	145.09409	212.98064	-618.36890	76.81487	165.07098	-572.91870	48.63939	158.31818	-492.82913	90.52103	161.37891	-531.48248	142.02675	166.69032	-629.58661	214.79214	222.65781	-590.84991	186.30739	171.47865	-713.56049	216.24553	170.14896	-568.30133	411.61868	890.62085	-517.70959	351.88803	847.83185	-609.28931	414.16959	760.99786	-634.23712	394.81573	633.88727	-599.33661	294.26675	583.26172	-641.25403	391.45483	568.58441	-589.10571	351.56436	543.84247	-695.43811	397.36508	518.68469	-677.40192	411.80289	217.16035	-584.52362	467.15714	167.02728	-546.29285	477.58704	160.52881	-486.50031	428.61203	167.55737	-524.97791	388.44031	177.39095	-640.97845	325.42798	204.85645	-593.31030	347.31454	168.91418	-731.48431	342.69186	164.81044	-443.23981	448.61285	146.92572	-450.33990	75.53759	144.44673	-806.25183	82.76195	142.52655	-799.30939	458.36505	144.67493	
2	0.020	-675.62885	208.60527	1836.07385	-623.69275	25.83739	1528.93225	-619.61707	418.74332	1528.66589	-524.54535	232.99413	1399.60339	-537.37805	110.27467	1061.06970	-543.13721	368.60736	1086.14709	-726.88934	213.27156	1056.46326	-560.14221	64.55433	895.49432	-516.28082	129.67471	849.86298	-612.01685	66.75507	753.03400	-633.33862	104.74499	606.97760	-622.20471	218.15176	572.73883	-672.32434	108.18401	542.48401	-588.37012	159.59050	554.74854	-715.24304	115.93201	477.31049	-687.45880	145.02512	212.88962	-618.42133	76.68853	164.95111	-573.00580	48.67566	158.22314	-492.92587	90.52250	161.45633	-531.55878	141.98590	166.67657	-629.80939	214.71346	222.88443	-590.87360	186.31529	171.62743	-713.67267	216.27176	170.08426	-567.75360	412.19330	890.39111	-517.71002	352.22510	847.42242	-609.52496	414.42075	760.72101	-634.90826	395.24277	634.00049	-600.13367	294.39066	583.34900	-642.01868	392.02921	568.74060	-589.82404	351.65161	543.84259	-696.07770	397.60504	518.68732	-677.55438	411.70258	217.06187	-584.42505	467.13040	167.04535	-546.29681	477.69547	160.45508	-486.57809	428.57977	167.97269	-524.91840	388.37698	177.34700	-640.73944	325.43225	205.20602	-593.20618	347.43320	168.89178	-731.43213	342.74826	164.86131	-443.22256	448.64893	146.95401	-450.32654	75.44475	144.54385	-806.25757	82.75021	142.49767	-799.40576	458.04282	144.87675	
3	0.040	-677.27454	210.09418	1835.84204	-624.25140	26.65857	1528.80139	-620.10022	419.59641	1528.03650	-524.82092	233.60184	1399.52710	-536.89227	111.62216	1059.67249	-542.62036	369.63495	1085.87366	-726.10999	213.59473	1057.05005	-560.15222	65.13282	895.02277	-516.70166	130.36316	849.20691	-613.66833	66.96504	753.47815	-635.52191	105.27238	606.99780	-624.79443	218.78568	572.80347	-674.51508	108.46692	542.73596	-590.86206	160.31274	554.45526	-717.35718	116.27282	477.18582	-687.81134	144.93646	212.81912	-618.49109	76.57212	164.83488	-573.07245	48.69838	158.15475	-493.05389	90.50677	161.57434	-531.63593	141.90912	166.72577	-630.14728	214.64496	222.87891	-590.88831	186.26167	171.84148	-713.86725	216.24635	169.99796	-567.29712	412.78802	890.22656	-517.78442	352.59872	846.98206	-609.77472	414.74094	760.47748	-635.62213	395.60303	634.05957	-601.08862	294.61630	583.36694	-642.86536	392.47275	568.82385	-590.62653	351.81119	543.91071	-696.82336	397.89807	518.63214	-677.74841	411.64313	216.98991	-584.39490	467.12936	167.04575	-546.27600	477.76331	160.37134	-486.62289	428.56058	168.19856	-524.90741	388.29919	177.26636	-640.50171	325.40335	205.56511	-593.18219	347.49121	168.86617	-731.43170	342.77484	164.87360	-443.20905	448.69363	146.97813	-450.33481	75.36102	144.62347	-806.26862	82.74059	142.47719	-799.47577	457.78052	145.05133	
4	0.060	-678.67480	211.54724	1835.60999	-624.61688	27.65973	1528.45532	-620.48749	420.53006	1527.54260	-524.84338	234.29105	1399.59155	-536.33661	112.39964	1058.86829	-542.15710	370.33789	1085.83142	-725.46423	214.06140	1057.58875	-560.30853	65.78330	894.55585	-517.34869	131.08482	848.53180	-615.09735	67.30245	753.53595	-637.57343	105.77898	607.02057	-627.07526	219.28975	572.82422	-676.61969	108.72812	542.91125	-593.20276	160.85532	554.19855	-719.23096	116.57303	477.09583	-688.23737	144.81914	212.79109	-618.56818	76.48299	164.72922	-573.11328	48.70911	158.11124	-493.20236	90.47918	161.72697	-531.71564	141.78703	166.85132	-630.61182	214.62140	222.56898	-590.89636	186.13115	172.13365	-714.12750	216.17442	169.91295	-567.02081	413.38474	890.11487	-517.96692	353.01248	846.52667	-610.06458	415.17883	760.30005	-636.41797	395.91721	634.04071	-602.23340	294.94553	583.32355	-643.81335	392.78619	568.82391	-591.56714	352.08438	544.03961	-697.72540	398.24509	518.52655	-677.99774	411.65121	216.91728	-584.44067	467.17490	166.99803	-546.24127	477.78564	160.28006	-486.63736	428.57138	168.18927	-524.95801	388.19891	177.15039	-640.37207	325.37399	205.86377	-593.24127	347.50284	168.81082	-731.48938	342.77533	164.83723	-443.22253	448.75952	146.99481	-450.37097	75.30930	144.66730	-806.28284	82.73286	142.47548	-799.48730	457.66333	145.11169	
5	0.080	-679.85443	212.94849	1835.38757	-624.70813	28.76326	1528.03271	-620.74786	421.50769	1527.17224	-524.65930	235.05888	1399.76062	-535.88098	112.84847	1058.52759	-541.76416	370.84042	1085.94507	-725.01019	214.64928	1058.16455	-560.63306	66.40356	894.21521	-518.14880	131.68515	848.01196	-616.29126	67.73823	753.33411	-639.36163	106.21056	607.04974	-628.93469	219.70276	572.76349	-678.39642	108.97562	542.96124	-595.15179	161.18848	554.01831	-720.77002	116.81458	477.01205	-688.67804	144.68515	212.81262	-618.63135	76.42161	164.63997	-573.13275	48.71696	158.08009	-493.31967	90.46046	161.87381	-531.78961	141.64297	167.01762	-631.09222	214.65013	222.11821	-590.90863	185.96657	172.43489	-714.36426	216.09692	169.88057	-566.95367	413.96930	890.02124	-518.21503	353.45367	846.08484	-610.42896	415.74564	760.18866	-637.31903	396.26068	633.96350	-603.48828	295.30243	583.28595	-644.83563	393.07040	568.79022	-592.64093	352.46143	544.16003	-698.74811	398.63150	518.42554	-678.28528	411.74588	216.81750	-584.52698	467.26306	166.88695	-546.22101	477.79236	160.19150	-486.63498	428.62222	168.03818	-525.02899	388.11636	177.06155	-640.43597	325.38013	206.06770	-593.30554	347.55222	168.67973	-731.57880	342.78394	164.74905	-443.28677	448.86032	147.00233	-450.41803	75.30014	144.67505	-806.29346	82.72495	142.49454	-799.43866	457.74509	145.00410	
6	0.100	-680.85284	214.28848	1835.17310	-624.52765	29.82720	1527.70862	-620.82574	422.46875	1526.86462	-524.35681	235.85738	1399.91528	-535.68170	113.22614	1058.38928	-541.45972	371.33563	1086.02161	-724.75104	215.34526	1058.82922	-561.10883	66.92352	894.05652	-518.97650	132.08325	847.69128	-617.24280	68.17542	753.10675	-640.73254	106.50636	607.10864	-630.27979	220.06700	572.68323	-679.65662	109.20429	542.90588	-596.53790	161.39195	553.90009	-721.87714	116.99244	476.92520	-689.01959	144.56830	212.85756	-618.66656	76.37656	164.57399	-573.13464	48.72190	158.06194	-493.36298	90.45586	161.96930	-531.83813	141.52365	167.16267	-631.45026	214.69322	221.76910	-590.95044	185.85251	172.60687	-714.51563	216.03389	169.92050	-567.05096	414.53018	889.92719	-518.46320	353.91183	845.66364	-610.90387	416.40796	760.08459	-638.32141	396.66177	633.86725	-604.76044	295.61328	583.30829	-645.89844	393.40726	568.75793	-593.78662	352.88828	544.22455	-699.80591	399.06906	518.35535	-678.56982	411.92679	216.70415	-584.62439	467.36639	166.73119	-546.22504	477.81824	160.10641	-486.63046	428.69730	167.89009	-525.05847	388.12311	177.07986	-640.65875	325.40625	206.24039	-593.30695	347.71054	168.43929	-731.67444	342.84152	164.61206	-443.38165	448.98093	146.99857	-450.45255	75.31496	144.66069	-806.29651	82.71827	142.52231	-799.36359	457.96664	144.79689	
